<svg xmlns="http://www.w3.org/2000/svg" width="80.869" height="92.262" viewBox="0 0 80.869 92.262">
  <g id="discount" transform="translate(-12.96 -3.528)">
    <path id="Path_21" data-name="Path 21" d="M12.96,91.51a1.5,1.5,0,0,0,1.5,1.5H30.1a1.5,1.5,0,0,0,1.5-1.5V88.8l19.97,6.44a11.139,11.139,0,0,0,3.47.55,11.291,11.291,0,0,0,5.89-1.66L84.6,79.68a5.1,5.1,0,0,0-4.06-9.25L63.38,75.36a5.1,5.1,0,0,0-.3-1.27,4.921,4.921,0,0,0-2.89-2.78L43.4,65.3a4.72,4.72,0,0,0-3.21.01L31.6,68.47V66.31a1.5,1.5,0,0,0-1.5-1.5H14.46a1.5,1.5,0,0,0-1.5,1.5ZM41.22,68.13a1.8,1.8,0,0,1,1.17,0l16.79,6.01a1.907,1.907,0,0,1-1.23,3.61l-10.8-3.47a1.5,1.5,0,0,0-.92,2.86l10.8,3.47a4.758,4.758,0,0,0,1.48.23,4.961,4.961,0,0,0,4.06-2.12l18.8-5.4a2.1,2.1,0,0,1,2.35.9,2.072,2.072,0,0,1,.27,1.59,2.049,2.049,0,0,1-.95,1.31L59.37,91.57a8.322,8.322,0,0,1-6.88.82L31.6,85.65V71.68Zm-25.26-.31H28.6V90.01H15.96Z" fill="#fff"/>
    <path id="Path_22" data-name="Path 22" d="M38.52,60.34H50.96l8.79,8.79a1.5,1.5,0,0,0,2.12,0l8.79-8.79H83.1a1.5,1.5,0,0,0,1.5-1.5V46.4l8.79-8.79a1.5,1.5,0,0,0,0-2.12L84.6,26.7V14.26a1.5,1.5,0,0,0-1.5-1.5H70.66L61.87,3.97a1.491,1.491,0,0,0-2.12,0l-8.79,8.79H38.52a1.5,1.5,0,0,0-1.5,1.5V26.7l-8.79,8.79a1.5,1.5,0,0,0,0,2.12l8.79,8.79V58.84a1.5,1.5,0,0,0,1.5,1.5ZM31.41,36.55l8.17-8.17a1.5,1.5,0,0,0,.44-1.06V15.76H51.58a1.5,1.5,0,0,0,1.06-.44l8.17-8.17,8.17,8.17a1.5,1.5,0,0,0,1.06.44H81.6V27.32a1.5,1.5,0,0,0,.44,1.06l8.17,8.17-8.17,8.17a1.5,1.5,0,0,0-.44,1.06V57.34H70.04a1.5,1.5,0,0,0-1.06.44l-8.17,8.17-8.17-8.17a1.5,1.5,0,0,0-1.06-.44H40.02V45.78a1.5,1.5,0,0,0-.44-1.06Z" fill="#fff"/>
    <path id="Path_23" data-name="Path 23" d="M41.35,54.51a1.5,1.5,0,0,0,1.5,1.5h9.9l7,7a1.5,1.5,0,0,0,2.12,0l7-7h9.9a1.5,1.5,0,0,0,1.5-1.5v-9.9l7-7a1.491,1.491,0,0,0,0-2.12l-7-7v-9.9a1.5,1.5,0,0,0-1.5-1.5h-9.9l-7-7a1.5,1.5,0,0,0-2.12,0l-7,7h-9.9a1.5,1.5,0,0,0-1.5,1.5v9.9l-7,7a1.5,1.5,0,0,0,0,2.12l7,7ZM37.53,36.55l6.38-6.38a1.5,1.5,0,0,0,.44-1.06V20.09h9.02a1.5,1.5,0,0,0,1.06-.44l6.38-6.38,6.38,6.38a1.5,1.5,0,0,0,1.06.44h9.02v9.02a1.5,1.5,0,0,0,.44,1.06l6.38,6.38-6.38,6.38a1.5,1.5,0,0,0-.44,1.06v9.02H68.25a1.5,1.5,0,0,0-1.06.44l-6.38,6.38-6.38-6.38a1.5,1.5,0,0,0-1.06-.44H44.35V43.99a1.5,1.5,0,0,0-.44-1.06Z" fill="#fff"/>
    <g id="Group_1" data-name="Group 1">
      <path id="Path_24" data-name="Path 24" d="M50.89,46.4a1.5,1.5,0,0,0,2.12,0L70.6,28.82a1.5,1.5,0,0,0-2.12-2.12L50.89,44.28a1.509,1.509,0,0,0,0,2.12Z" fill="#fc0"/>
      <path id="Path_25" data-name="Path 25" d="M66.7,37.63a4.88,4.88,0,1,0,4.88,4.88,4.88,4.88,0,0,0-4.88-4.88Zm0,6.75a1.88,1.88,0,1,1,1.88-1.88,1.88,1.88,0,0,1-1.88,1.88Z" fill="#fc0"/>
      <path id="Path_26" data-name="Path 26" d="M54.89,35.67a4.97,4.97,0,1,0-4.97-4.97,4.97,4.97,0,0,0,4.97,4.97Zm0-6.95a1.97,1.97,0,1,1-1.97,1.97,1.97,1.97,0,0,1,1.97-1.97Z" fill="#fc0"/>
    </g>
  </g>
</svg>
