<svg xmlns="http://www.w3.org/2000/svg" width="24.535" height="20.261" viewBox="0 0 24.535 20.261">
  <g id="gambling" transform="translate(-0.35 -0.883)">
    <g id="_529331496" transform="translate(0.35 0.883)">
      <path id="_529333488" d="M12.253,10.944a4.048,4.048,0,0,1-1.526-.3L4.946,8.3A3.593,3.593,0,0,0,2.784,8.12l-1.2.274a.281.281,0,1,1-.124-.548l1.2-.274a4.151,4.151,0,0,1,2.5.2l5.781,2.349a3.5,3.5,0,0,0,2.834-.092l7.4-3.58a.849.849,0,0,0-.37-1.614.861.861,0,0,0-.229.032L14.363,6.6a.281.281,0,0,1-.151-.541L20.429,4.33a1.421,1.421,0,0,1,.379-.052,1.411,1.411,0,0,1,.615,2.681l-7.4,3.581a4.059,4.059,0,0,1-1.765.4Z" transform="translate(2.315 9.317)" fill="#fff" fill-rule="evenodd"/>
      <path id="_529333704" d="M13.3,9.176a1.3,1.3,0,0,1-.381-.058l-4.6-1.412a.281.281,0,1,1,.165-.537l4.6,1.412a.722.722,0,0,0,.932-.69.637.637,0,0,0,0-.078.723.723,0,0,0-.344-.539L8.02,4.977A8.414,8.414,0,0,0,4.051,4.4L1.544,4.64a.281.281,0,1,1-.054-.559L4,3.838a8.982,8.982,0,0,1,4.235.618L13.9,6.763a.233.233,0,0,1,.033.016,1.283,1.283,0,0,1,.638.971,1.081,1.081,0,0,1,.009.142A1.285,1.285,0,0,1,13.3,9.176Z" transform="translate(2.312 7.869)" fill="#fff" fill-rule="evenodd"/>
      <path id="_529332216" d="M2.181,11.073H1.144a.281.281,0,1,1,0-.562H2.181a.179.179,0,0,0,.179-.179V4.427a.179.179,0,0,0-.179-.179H1.144a.281.281,0,1,1,0-.562H2.181a.742.742,0,0,1,.741.741v5.905a.741.741,0,0,1-.741.741Z" transform="translate(1.192 7.536)" fill="#fff" fill-rule="evenodd"/>
      <path id="_529332456" d="M.911,11.5h1.33a.163.163,0,0,0,.163-.163V4.269a.163.163,0,0,0-.163-.163H.911V11.5Zm1.33.562H.631a.281.281,0,0,1-.281-.281V3.825a.281.281,0,0,1,.281-.281H2.241a.725.725,0,0,1,.725.725v7.069a.725.725,0,0,1-.725.725Z" transform="translate(-0.35 7.111)" fill="#fff" fill-rule="evenodd"/>
      <g id="Group_2" data-name="Group 2">
        <path id="_529332840" d="M4.458,5.142a.817.817,0,0,1-.772-.631.281.281,0,1,1,.544-.142.258.258,0,0,0,.228.211.257.257,0,0,0,.229-.213A.335.335,0,0,0,4.7,4.275a.33.33,0,0,0-.011-.088.259.259,0,0,0-.23-.217.816.816,0,0,1-.772-.632.931.931,0,0,1,0-.473.816.816,0,0,1,.772-.629.815.815,0,0,1,.774.637.281.281,0,0,1-.545.138A.257.257,0,0,0,4.458,2.8a.257.257,0,0,0-.228.21.359.359,0,0,0-.012.094.369.369,0,0,0,.012.093.258.258,0,0,0,.229.213.815.815,0,0,1,.774.638.885.885,0,0,1,.029.229.9.9,0,0,1-.029.232.814.814,0,0,1-.773.634Z" transform="translate(9.583 3.184)" fill="#fc0" fill-rule="evenodd"/>
        <path id="_529332696" d="M4.067,3.091a.281.281,0,0,1-.281-.281v-.39a.281.281,0,1,1,.562,0v.39a.281.281,0,0,1-.281.281Z" transform="translate(9.974 2.891)" fill="#fc0" fill-rule="evenodd"/>
        <path id="_529332768" d="M4.067,3.774a.281.281,0,0,1-.281-.281V3.1a.281.281,0,1,1,.562,0v.39a.281.281,0,0,1-.281.281Z" transform="translate(9.974 4.941)" fill="#fc0" fill-rule="evenodd"/>
        <path id="_529332336" d="M5.89,2.485A2.149,2.149,0,1,0,8.039,4.633,2.151,2.151,0,0,0,5.89,2.485Zm0,4.859A2.71,2.71,0,1,1,8.6,4.633,2.714,2.714,0,0,1,5.89,7.344Z" transform="translate(8.151 2.24)" fill="#fc0" fill-rule="evenodd"/>
        <path id="_529332312" d="M2.9,2.225A.174.174,0,0,0,2.73,2.4V8.43A.173.173,0,0,0,2.9,8.6H14.948a.173.173,0,0,0,.173-.173V2.4a.173.173,0,0,0-.173-.173H2.9Zm12.045,6.94H2.9a.735.735,0,0,1-.735-.734V2.4A.735.735,0,0,1,2.9,1.663H14.948a.735.735,0,0,1,.735.734V8.43a.736.736,0,0,1-.735.734Z" transform="translate(5.115 1.459)" fill="#fff" fill-rule="evenodd"/>
        <path id="_529332288" d="M2.449,4.017a.281.281,0,0,1,0-.562A1.513,1.513,0,0,0,3.961,1.944a.281.281,0,1,1,.561,0A2.075,2.075,0,0,1,2.449,4.017Z" transform="translate(5.115 1.459)" fill="#fff" fill-rule="evenodd"/>
        <path id="_529332264" d="M7.029,4.017A2.075,2.075,0,0,1,4.956,1.944a.281.281,0,1,1,.562,0A1.513,1.513,0,0,0,7.029,3.455a.281.281,0,0,1,0,.562Z" transform="translate(13.489 1.459)" fill="#fff" fill-rule="evenodd"/>
        <path id="_529332432" d="M4.242,5.3a.281.281,0,0,1-.281-.281A1.513,1.513,0,0,0,2.449,3.51a.281.281,0,0,1,0-.562A2.075,2.075,0,0,1,4.522,5.021a.28.28,0,0,1-.28.281Z" transform="translate(5.115 5.321)" fill="#fff" fill-rule="evenodd"/>
        <path id="_529332240" d="M5.237,5.3a.281.281,0,0,1-.281-.281A2.075,2.075,0,0,1,7.029,2.949a.281.281,0,0,1,0,.562A1.512,1.512,0,0,0,5.518,5.021a.281.281,0,0,1-.281.281Z" transform="translate(13.489 5.321)" fill="#fff" fill-rule="evenodd"/>
        <path id="_529331928" d="M3.378,3.091H2.895a.281.281,0,1,1,0-.562h.483a.281.281,0,0,1,0,.562Z" transform="translate(6.452 4.063)" fill="#fc0" fill-rule="evenodd"/>
        <path id="_529331856" d="M5.6,3.091H5.119a.281.281,0,1,1,0-.562H5.6a.281.281,0,0,1,0,.562Z" transform="translate(13.133 4.063)" fill="#fc0" fill-rule="evenodd"/>
        <path id="_529331832" d="M3.282,2.821A.281.281,0,0,1,3,2.54V1.356a.281.281,0,1,1,.562,0V2.54a.281.281,0,0,1-.281.281Z" transform="translate(7.615 -0.308)" fill="#fc0" fill-rule="evenodd"/>
        <path id="_529331616" d="M3.808,3.4a.281.281,0,0,1-.281-.281V1.164a.281.281,0,1,1,.561,0V3.115a.281.281,0,0,1-.281.281h0Z" transform="translate(9.198 -0.883)" fill="#fc0" fill-rule="evenodd"/>
        <path id="_529331688" d="M4.336,2.821a.281.281,0,0,1-.281-.281V1.356a.281.281,0,1,1,.562,0V2.54a.281.281,0,0,1-.281.281Z" transform="translate(10.78 -0.308)" fill="#fc0" fill-rule="evenodd"/>
        <path id="_529332120" d="M4.862,3.4a.281.281,0,0,1-.281-.281V1.164a.281.281,0,1,1,.561,0V3.115a.281.281,0,0,1-.281.281Z" transform="translate(12.363 -0.883)" fill="#fc0" fill-rule="evenodd"/>
      </g>
    </g>
  </g>
</svg>
