<svg xmlns="http://www.w3.org/2000/svg" xmlns:xlink="http://www.w3.org/1999/xlink" width="143.623" height="143.623" viewBox="0 0 143.623 143.623">
  <defs>
    <clipPath id="clip-path">
      <path id="path2001" d="M0-682.665H143.623v143.623H0Z" transform="translate(0 682.665)"/>
    </clipPath>
  </defs>
  <g id="members" transform="translate(0 682.665)">
    <g id="g1997" transform="translate(0 -682.665)">
      <g id="g1999" transform="translate(0 0)" clip-path="url(#clip-path)">
        <g id="g2005" transform="translate(58.536 127.264)">
          <path id="path2007" d="M0-7.918a12.553,12.553,0,0,0,11.873-.373l3-1.737s0,0,0,0" transform="translate(0 10.028)" fill="none" stroke="#fff" stroke-linecap="round" stroke-linejoin="round" stroke-miterlimit="10" stroke-width="3"/>
        </g>
        <g id="g2009" transform="translate(100.833 67.98)">
          <path id="path2011" d="M-132.444,0l3.709,6.424a12.57,12.57,0,0,1-4.6,17.17l-34.4,19.86" transform="translate(167.733)" fill="none" stroke="#fff" stroke-linecap="round" stroke-linejoin="round" stroke-miterlimit="10" stroke-width="3"/>
        </g>
        <g id="g2013" transform="translate(85.394 117.178)">
          <path id="path2015" d="M-35.454,0V0l-5.917,7.05A12.533,12.533,0,0,1-44.9,9.968" transform="translate(44.9)" fill="none" stroke="#fff" stroke-linecap="round" stroke-linejoin="round" stroke-miterlimit="10" stroke-width="3"/>
        </g>
        <g id="g2017" transform="translate(63.741 119.512)">
          <path id="path2019" d="M0,0,7.474,6.271A12.5,12.5,0,0,0,13.489,9.04" fill="none" stroke="#fff" stroke-linecap="round" stroke-linejoin="round" stroke-miterlimit="10" stroke-width="3"/>
        </g>
        <g id="g2021" transform="translate(101.902 41.537)">
          <path id="path2023" d="M0-252.3l0,0,35.128-41.868a12.56,12.56,0,0,0-1.546-17.7l-9.118-7.651" transform="translate(0 319.529)" fill="none" stroke="#fff" stroke-linecap="round" stroke-linejoin="round" stroke-miterlimit="10" stroke-width="3"/>
        </g>
        <g id="g2025" transform="translate(65.214 16.658)">
          <path id="path2027" d="M-132.264,0l19.069,6.941a12.566,12.566,0,0,1,7.511,16.109l-25.6,70.336a12.574,12.574,0,0,1-16.112,7.513l-20.11-7.32" transform="translate(167.505)" fill="none" stroke="#fff" stroke-linecap="round" stroke-linejoin="round" stroke-miterlimit="10" stroke-width="3"/>
        </g>
        <g id="g2029" transform="translate(24.092 2.111)">
          <path id="path2031" d="M0-291.885v-65.2a12.568,12.568,0,0,1,12.569-12.569H63.793a12.568,12.568,0,0,1,12.569,12.569v10.762" transform="translate(0 369.655)" fill="none" stroke="#fff" stroke-linecap="round" stroke-linejoin="round" stroke-miterlimit="10" stroke-width="3"/>
        </g>
        <g id="g2033" transform="translate(64.229 33.858)">
          <path id="path2035" d="M-135.961,0V55.671A12.57,12.57,0,0,1-148.53,68.24h-23.657" transform="translate(172.186)" fill="none" stroke="#fff" stroke-linecap="round" stroke-linejoin="round" stroke-miterlimit="10" stroke-width="3"/>
        </g>
        <g id="g2037" transform="translate(44.005 25.553)">
          <path id="path2039" d="M-137.135-99.65-155.4-126.2-173.673-99.65-155.4-73.1Z" transform="translate(173.673 126.201)" fill="none" stroke="#fc0" stroke-linecap="round" stroke-linejoin="round" stroke-miterlimit="10" stroke-width="3"/>
        </g>
        <g id="g2041" transform="translate(111.603 35.108)">
          <path id="path2043" d="M-9.749,0l-2.6,7.136" transform="translate(12.347)" fill="none" stroke="#fc0" stroke-linecap="round" stroke-linejoin="round" stroke-miterlimit="10" stroke-width="3"/>
        </g>
        <g id="g2045" transform="translate(110.632 33.81)">
          <path id="path2047" d="M-26.783-9.748l-7.136-2.6" transform="translate(33.919 12.345)" fill="none" stroke="#fc0" stroke-linecap="round" stroke-linejoin="round" stroke-miterlimit="10" stroke-width="3"/>
        </g>
        <g id="g2049" transform="translate(36.96 12.446)">
          <path id="path2051" d="M0,0V7.594" fill="none" stroke="#fc0" stroke-linecap="round" stroke-linejoin="round" stroke-miterlimit="10" stroke-width="3"/>
        </g>
        <g id="g2053" transform="translate(33.163 12.446)">
          <path id="path2055" d="M-28.5,0H-36.1" transform="translate(36.096)" fill="none" stroke="#fc0" stroke-linecap="round" stroke-linejoin="round" stroke-miterlimit="10" stroke-width="3"/>
        </g>
        <g id="g2057" transform="translate(87.587 84.168)">
          <path id="path2059" d="M0-28.5V-36.1" transform="translate(0 36.096)" fill="none" stroke="#fc0" stroke-linecap="round" stroke-linejoin="round" stroke-miterlimit="10" stroke-width="3"/>
        </g>
        <g id="g2061" transform="translate(83.791 91.762)">
          <path id="path2063" d="M0,0H7.594" fill="none" stroke="#fc0" stroke-linecap="round" stroke-linejoin="round" stroke-miterlimit="10" stroke-width="3"/>
        </g>
        <g id="g2065" transform="translate(2.105 78.403)">
          <path id="path2067" d="M-236.866-118.432a31.555,31.555,0,0,0-31.556-31.555,31.555,31.555,0,0,0-31.555,31.555,31.556,31.556,0,0,0,31.555,31.556A31.556,31.556,0,0,0-236.866-118.432Z" transform="translate(299.977 149.988)" fill="none" stroke="#fff" stroke-linecap="round" stroke-linejoin="round" stroke-miterlimit="10" stroke-width="3"/>
        </g>
        <g id="g2069" transform="translate(14.76 91.058)">
          <path id="path2071" d="M-141.873-70.937a18.9,18.9,0,0,0-18.9-18.9,18.9,18.9,0,0,0-18.9,18.9,18.9,18.9,0,0,0,18.9,18.9A18.9,18.9,0,0,0-141.873-70.937Z" transform="translate(179.674 89.837)" fill="none" stroke="#fff" stroke-linecap="round" stroke-linejoin="round" stroke-miterlimit="10" stroke-width="3"/>
        </g>
        <g id="g2073" transform="translate(33.659 128.858)">
          <path id="path2075" d="M0-47.5V-60.156" transform="translate(0 60.156)" fill="none" stroke="#fff" stroke-linejoin="round" stroke-miterlimit="10" stroke-width="3"/>
        </g>
        <g id="g2077" transform="translate(33.659 78.402)">
          <path id="path2079" d="M0-47.5V-60.156" transform="translate(0 60.156)" fill="none" stroke="#fff" stroke-linejoin="round" stroke-miterlimit="10" stroke-width="3"/>
        </g>
        <g id="g2081" transform="translate(17.882 126.326)">
          <path id="path2083" d="M0-41.136,6.328-52.1" transform="translate(0 52.096)" fill="none" stroke="#fff" stroke-linejoin="round" stroke-miterlimit="10" stroke-width="3"/>
        </g>
        <g id="g2085" transform="translate(43.109 82.63)">
          <path id="path2087" d="M0-41.137,6.328-52.1" transform="translate(0 52.097)" fill="none" stroke="#fff" stroke-linejoin="round" stroke-miterlimit="10" stroke-width="3"/>
        </g>
        <g id="g2089" transform="translate(6.332 119.408)">
          <path id="path2091" d="M0-23.75l10.96-6.328" transform="translate(0 30.079)" fill="none" stroke="#fff" stroke-linejoin="round" stroke-miterlimit="10" stroke-width="3"/>
        </g>
        <g id="g2093" transform="translate(50.027 94.18)">
          <path id="path2095" d="M0-23.749l10.96-6.328" transform="translate(0 30.077)" fill="none" stroke="#fff" stroke-linejoin="round" stroke-miterlimit="10" stroke-width="3"/>
        </g>
        <g id="g2097" transform="translate(2.104 109.958)">
          <path id="path2099" d="M0,0H12.656" transform="translate(0 0)" fill="none" stroke="#fff" stroke-linejoin="round" stroke-miterlimit="10" stroke-width="3"/>
        </g>
        <g id="g2101" transform="translate(52.559 109.958)">
          <path id="path2103" d="M0,0H12.656" transform="translate(0 0)" fill="none" stroke="#fff" stroke-linejoin="round" stroke-miterlimit="10" stroke-width="3"/>
        </g>
        <g id="g2105" transform="translate(6.332 94.18)">
          <path id="path2107" d="M0,0,10.96,6.328" fill="none" stroke="#fff" stroke-linejoin="round" stroke-miterlimit="10" stroke-width="3"/>
        </g>
        <g id="g2109" transform="translate(50.027 119.408)">
          <path id="path2111" d="M0,0,10.96,6.328" fill="none" stroke="#fff" stroke-linejoin="round" stroke-miterlimit="10" stroke-width="3"/>
        </g>
        <g id="g2113" transform="translate(17.882 82.63)">
          <path id="path2115" d="M0,0,6.328,10.961" fill="none" stroke="#fff" stroke-linejoin="round" stroke-miterlimit="10" stroke-width="3"/>
        </g>
        <g id="g2117" transform="translate(43.109 126.326)">
          <path id="path2119" d="M0,0,6.328,10.96" fill="none" stroke="#fff" stroke-linejoin="round" stroke-miterlimit="10" stroke-width="3"/>
        </g>
        <g id="g2121" transform="translate(25.846 102.829)">
          <path id="path2123" d="M0,0V14.259" fill="none" stroke="#fc0" stroke-linecap="round" stroke-linejoin="round" stroke-miterlimit="10" stroke-width="3"/>
        </g>
        <g id="g2125" transform="translate(32.701 102.143)">
          <path id="path2127" d="M-32.932-29.33c0-4.316-1.964-7.815-4.387-7.815s-4.387,3.5-4.387,7.815,1.964,7.815,4.387,7.815S-32.932-25.014-32.932-29.33Z" transform="translate(41.707 37.145)" fill="none" stroke="#fc0" stroke-linecap="round" stroke-linejoin="round" stroke-miterlimit="10" stroke-width="3"/>
        </g>
      </g>
    </g>
  </g>
</svg>
