<svg xmlns="http://www.w3.org/2000/svg" width="217.286" height="217.286" viewBox="0 0 217.286 217.286">
  <g id="ribbon" transform="translate(0 0)">
    <path id="Path_1" data-name="Path 1" d="M49.642,40.092a3.183,3.183,0,1,0-3.183-3.183A3.183,3.183,0,0,0,49.642,40.092Zm-25.463,0A3.183,3.183,0,1,0,21,36.909,3.183,3.183,0,0,0,24.179,40.092Zm12.732,0a3.183,3.183,0,1,0-3.183-3.183A3.183,3.183,0,0,0,36.91,40.092Zm-.7,33.719h.059l28.777.007h0a4.356,4.356,0,0,0,2.218-8.1l-4.377-2.59A36.909,36.909,0,1,0,0,36.91a37.3,37.3,0,0,0,36.212,36.9ZM15.469,15.156A30.323,30.323,0,0,1,37.361,6.369,30.543,30.543,0,0,1,56.983,59.929a4.647,4.647,0,0,0,.687,7.5l.032.019-21.4-.005A30.542,30.542,0,0,1,15.469,15.156ZM214.1,210.92H210.92v-47.4a31.463,31.463,0,0,0-18.73-28.745l-16.774-7.19a25.127,25.127,0,0,0,10.77-6.771,26.367,26.367,0,0,0,7.123-17.893,25.321,25.321,0,0,0-6.1-16.467,32.952,32.952,0,0,1-7.735-21.2V50.006a50.008,50.008,0,0,0-100.015,0V64.761A34.4,34.4,0,0,1,71.195,86.6a25.778,25.778,0,0,0,12.3,41.1l-16.657,7.243A31.36,31.36,0,0,0,47.6,163.9v37.469a3.183,3.183,0,1,0,6.366,0V163.9A25.021,25.021,0,0,1,69.346,140.79l20.879-9.079v19.159H80.632a9.548,9.548,0,0,0-9.5,10.555l5.247,49.5H3.183a3.183,3.183,0,1,0,0,6.366H214.1a3.183,3.183,0,0,0,0-6.366ZM182.343,90.555a19.032,19.032,0,0,1,4.6,12.367,19.94,19.94,0,0,1-5.391,13.528,19.054,19.054,0,0,1-14.033,5.972h-4.148l-5.449-2.335a14.525,14.525,0,0,1-8.681-11.454,31.328,31.328,0,0,0,16.512-27.58V57.125c.932.063,1.862.1,2.79.1a40.567,40.567,0,0,0,4.569-.258v8.293a39.325,39.325,0,0,0,9.23,25.3Zm-52.1,50.248a117.919,117.919,0,0,1-33.651-4.282v-7.578l.921-.4.022-.009,5.678-2.469a20.9,20.9,0,0,0,12.142-14.953,31.2,31.2,0,0,0,8.725,1.246H134.45a31.2,31.2,0,0,0,8.757-1.256,20.89,20.89,0,0,0,12.206,14.837l6.06,2.6.011,0,.449.192v7.162a118.154,118.154,0,0,1-31.693,4.908Zm31.692,1.72v8.348H96.59v-7.758a124.405,124.405,0,0,0,31.579,4.075q1.091,0,2.183-.019A124.494,124.494,0,0,0,161.933,142.522Zm11.178-91.976c-8.767,1.184-18.65-1.164-25.459-6.44a3.183,3.183,0,1,0-3.9,5.032,38.456,38.456,0,0,0,15.634,7.1V73.569a23.284,23.284,0,0,1-7.071,9.552,24.406,24.406,0,0,1-5.279,3.319,9.338,9.338,0,0,0-8.307-5.091h-7.459a9.33,9.33,0,0,0,0,18.66h7.459a9.346,9.346,0,0,0,9.027-6.97c4.258-1.622,11.2-7.41,11.2-7.412a24.974,24.974,0,0,1-24.509,20.362H124.078A24.965,24.965,0,0,1,99.141,81.052v-24.6a85.352,85.352,0,0,0,30.39-10.893A86.461,86.461,0,0,0,158.46,17.389a43.615,43.615,0,0,1,14.652,33.157ZM141.694,90.688a2.968,2.968,0,0,1-2.964,2.956h-7.459a2.964,2.964,0,0,1,0-5.929h7.459a2.967,2.967,0,0,1,2.964,2.955ZM85.828,50.005a43.655,43.655,0,0,1,67.563-36.511,80.142,80.142,0,0,1-27.1,26.584A79.143,79.143,0,0,1,96.161,50.451H85.828v-.446ZM73.464,111.278a19.208,19.208,0,0,1,2.626-20.612,40.656,40.656,0,0,0,9.739-25.905V56.817h6.947V81.054A31.329,31.329,0,0,0,109.3,108.642a14.532,14.532,0,0,1-8.632,11.583l-5.054,2.2H91.006a19.209,19.209,0,0,1-17.542-11.144Zm110.8,49.475-5.318,50.166H82.785l-5.318-50.166a3.183,3.183,0,0,1,3.165-3.518H181.1a3.183,3.183,0,0,1,3.165,3.518Zm20.289,50.166H185.349l5.247-49.495a9.548,9.548,0,0,0-9.5-10.555H168.3V131.461l21.347,9.149a25.08,25.08,0,0,1,14.908,22.91Zm-73.688-38.938a12.1,12.1,0,1,0,12.1,12.1A12.109,12.109,0,0,0,130.866,171.983Zm0,17.824a5.729,5.729,0,1,1,5.729-5.729A5.736,5.736,0,0,1,130.866,189.807Z" transform="translate(0 0)" fill="#fff"/>
    <path id="Path_2" data-name="Path 2" d="M49.642,40.092a3.183,3.183,0,1,0-3.183-3.183A3.183,3.183,0,0,0,49.642,40.092Zm-25.463,0A3.183,3.183,0,1,0,21,36.909,3.183,3.183,0,0,0,24.179,40.092Zm12.732,0a3.183,3.183,0,1,0-3.183-3.183A3.183,3.183,0,0,0,36.91,40.092Zm-.7,33.719h.059l28.777.007h0a4.356,4.356,0,0,0,2.218-8.1l-4.377-2.59A36.909,36.909,0,1,0,0,36.91a37.3,37.3,0,0,0,36.212,36.9ZM15.469,15.156A30.323,30.323,0,0,1,37.361,6.369,30.543,30.543,0,0,1,56.983,59.929a4.647,4.647,0,0,0,.687,7.5l.032.019-21.4-.005A30.542,30.542,0,0,1,15.469,15.156Z" fill="#fc0"/>
  </g>
</svg>
