<svg xmlns="http://www.w3.org/2000/svg" width="536.319" height="460.584" viewBox="0 0 536.319 460.584">
  <g id="webinar" transform="translate(0 -37.867)">
    <path id="Path_54" data-name="Path 54" d="M532.857,128.744,410.892,39.5a8.381,8.381,0,0,0-7-1.383L257.378,75.282a8.379,8.379,0,0,0-2.891,14.873l38.8,28.323-8.38,42.484c-4.567,23.714,33.518,61.255,84.843,71.226a143.272,143.272,0,0,0,27.317,2.6,130.78,130.78,0,0,0,41.4-6.452c20.53-6.829,34.23-18.226,36.619-30.418l8.38-42.359,46.548-11.773a8.379,8.379,0,0,0,2.891-14.873Zm-74.118,65.947c-.964,4.9-10.055,12.569-25.516,17.723a122.466,122.466,0,0,1-60.333,3.268c-47.135-9.176-73.447-41.06-71.226-51.534l6.746-34.733,68.042,49.942a8.38,8.38,0,0,0,4.944,1.634,7.278,7.278,0,0,0,2.1-.293l81.952-20.739Zm-75.416-31.172L278.788,87.1l125.4-31.759L508.6,131.718Z" fill="#fc0"/>
    <path id="Path_55" data-name="Path 55" d="M204.88,236.379a8.381,8.381,0,0,0-4.19,7.165V393.035a8.382,8.382,0,0,0,4.19,7.165,8.135,8.135,0,0,0,4.19,1.215,8.375,8.375,0,0,0,3.9-.922L355.838,325.7a8.379,8.379,0,0,0,0-14.831L213.092,236.086a8.381,8.381,0,0,0-8.212.293Zm12.57,20.949,116.434,60.961L217.576,379.208Z" fill="#fff"/>
    <path id="Path_56" data-name="Path 56" d="M511.154,448.173H468.125a24.092,24.092,0,0,0,1.131-7.248V247.063a8.38,8.38,0,1,0-16.76,0V440.924a7.374,7.374,0,0,1-7.5,7.248H74.536a7.374,7.374,0,0,1-7.5-7.246V187.274a7.374,7.374,0,0,1,7.5-7.248h185.23a8.38,8.38,0,1,0,0-16.76H74.536a24.175,24.175,0,0,0-24.259,24.007v253.65a24.088,24.088,0,0,0,1.131,7.248H8.38A8.38,8.38,0,0,0,0,456.551v2.1c0,18.854,14.832,39.8,34.733,39.8H484.8c19.9,0,34.733-20.949,34.733-39.8v-2.1a8.38,8.38,0,0,0-8.377-8.378ZM484.8,481.691H34.733c-7.248,0-14.622-7.709-17.094-16.759H501.894c-2.472,9.05-9.846,16.759-17.094,16.759Z" fill="#fff"/>
  </g>
</svg>
